<?xml version="1.0" standalone="no"?><!DOCTYPE svg PUBLIC "-//W3C//DTD SVG 1.1//EN" "http://www.w3.org/Graphics/SVG/1.1/DTD/svg11.dtd"><svg t="1675082647961" class="icon" viewBox="0 0 1024 1024" version="1.1" xmlns="http://www.w3.org/2000/svg" p-id="6666" xmlns:xlink="http://www.w3.org/1999/xlink" width="200" height="200"><path d="M315.7 836.3a197.3 92.1 0 1 0 394.6 0 197.3 92.1 0 1 0-394.6 0z" fill="#C3A895" p-id="6667"></path><path d="M754.8 786.6l-1.9-456.7c-8.3-125.2-112.5-224.1-239.8-224.1s-233 98.9-241.4 224.1V779c-0.2 2.4-0.3 4.7-0.3 7.1 0.1 60.1 108.3 108.9 241.7 108.9s241.7-48.7 241.7-108.8" fill="#F6B71E" p-id="6668"></path><path d="M309.2 217.6c46.1 26.1 117.3 42.8 197.2 42.8 85 0 160.2-18.9 205.8-47.9-43.2-64.3-116.6-106.7-199.9-106.7-85.4 0-160.5 44.6-203.1 111.8z" fill="#EFA131" p-id="6669"></path><path d="M444.041 774.493A143.8 137.9 29.985 1 0 581.88 535.607a143.8 137.9 29.985 1 0-137.84 238.886z" fill="#F49042" p-id="6670"></path><path d="M631.2 581.8c13.7 37.1 11.7 79.1-9.1 115.1-38.1 66-124.6 87.2-193.4 47.6-20.5-11.9-37.2-27.8-49.4-46.1 11.4 30.7 33.5 58.2 64.7 76.1 68.8 39.7 155.4 18.4 193.4-47.6 26.7-46.2 22.4-102.1-6.2-145.1z" fill="#D65C45" p-id="6671"></path><path d="M575 549.8s-5.7-8.8-14.1-8.2l8 8.5s-4.8-1.4-9.8 3.4l12.2 2.7s2.9 4.6 2.4 10l4.5-7.8 6.6 7.3s2.2-7.5-2.6-11c0 0 4.4-3.5 9.3-0.3 0 0-4.9-5.8-10.7-5.2l-5.8 0.6z" fill="#302B2F" p-id="6672"></path><path d="M469.7 558.417a13.9 13.4 29.985 1 0 13.394-23.213 13.9 13.4 29.985 1 0-13.394 23.213z" fill="#FFF1B6" p-id="6673"></path><path d="M392.6 413.4c2 9.1 3.4 17 4.1 23.5s1.1 12.3 1.1 17.4c0 3.5-0.1 6.6-0.4 9.3-0.3 2.7-0.6 5.2-0.9 7.4-0.9 5.1-3.3 9-7.3 11.8-3.9 2.8-8.6 4.2-14 4.2-1 0-2.1-0.1-3.2-0.3-1.1-0.2-2.3-0.4-3.5-0.6-1.6-0.3-3.2-1-5-1.9-1.7-1-3.4-2.5-5-4.5s-3-4.7-4.2-8-2.1-7.5-2.5-12.6l14.5-2.5c0.9 5.4 2.1 9.5 3.5 12.4 1.5 2.9 3.3 4.3 5.4 4.3 2.7-0.1 4.6-1.7 5.7-4.8 1.1-3.1 1.7-7.2 1.7-12.2 0-5.1-0.5-11.1-1.5-18.2-1-7-2.1-14.4-3.2-22.2l14.7-2.5zM380 385c1.9 0 3.8-0.1 5.6-0.3 1.8-0.2 4.2-0.5 7.1-1.1 0 1.6 0 3.1-0.1 4.6s-0.1 2.8-0.1 3.9v8.3h-5c-1 0-1.7-0.1-2.3-0.2-0.6-0.1-1.3-0.2-2.1-0.3-0.8-0.1-2.4-0.1-4.6-0.1-0.6-1.8-0.9-3.2-0.9-4.1-0.1-0.9-0.1-2-0.3-3.2l-0.7-7.6h3.4v0.1z m97.3 32.1c0.6 3.9 1.1 7.5 1.6 10.8s1 6.4 1.4 9.5 0.7 6.3 0.9 9.5c0.2 3.2 0.3 6.7 0.3 10.4v4.3c0 1.6-0.1 3.2-0.2 4.6l-16.1 0.3V460c-7 4.3-13.7 6.4-20.1 6.4-3 0-6-0.5-9-1.5-2.9-1-5.7-2.6-8.3-4.9-1.4-1-2.6-2.3-3.7-3.7-1.1-1.5-2.1-3.3-3-5.4-0.8-2.1-1.5-4.7-2-7.8-0.5-3-0.8-6.7-0.8-11 0-6 0.5-13.3 1.5-22.1l17.9 1.2c-0.7 3.7-1.2 7.1-1.4 10.2-0.3 3.1-0.4 5.9-0.4 8.5 0 7.1 0.9 12.2 2.7 15.5 1.8 3.2 4.2 4.9 7.1 5 4.8 0.2 8.4 0 10.8-0.8 2.4-0.7 4.6-1.5 6.6-2.5l0.5 0.8c0.2 0.3 0.4 0.7 0.6 1.2s0.5 1 0.9 1.7c-0.1-3-0.3-6.2-0.5-9.5s-0.5-7.1-0.7-11.2l-0.7-18.2 12.3-2.4 1.8 7.6z m23.8-29.6c0.9-0.1 1.7-0.2 2.4-0.2h1.9c1.6-0.1 3-0.2 4.3-0.3 1.3-0.1 3.4-0.4 6.3-0.9v7.9c-0.1 1-0.2 2.1-0.2 3.4v4.4H511c-0.8 0-1.5-0.1-2.1-0.2s-1.2-0.2-1.9-0.3c-0.7-0.1-2.2-0.1-4.5-0.1-0.5-1.6-0.8-2.9-0.9-3.9-0.2-1-0.3-2.1-0.4-3.4l-0.7-5.9 0.6-0.5z m0.5 80.3c0-1.5 0-3 0.1-4.5s0.1-3 0.1-4.3c0-1.9 0-3.8 0.1-5.7 0.1-1.9 0.1-3.8 0.1-5.8 0-3.9-0.1-8.4-0.3-13.4-0.2-5-0.5-11.1-0.9-18.2l12.8-3c0.7 5.3 1.2 9.8 1.6 13.6 0.4 3.8 0.7 7.2 1 10.3 0.3 3.1 0.5 6.1 0.6 9s0.2 6.1 0.3 9.5l0.5 12.5h-16z m59.3 0c-2.1-0.3-4.6-0.9-7.4-1.7-2.8-0.8-5.5-2.3-8.1-4.4s-4.8-5.2-6.6-9c-1.8-3.9-2.7-9-2.7-15.5 0.1-4.5 0.7-8.3 1.9-11.5 1.1-3.2 2.5-5.8 4.2-7.9s3.6-3.7 5.7-4.9c2.1-1.2 4.1-2.1 6.2-2.6 3.8-0.9 7.3-1.4 10.3-1.4s6 0.3 8.9 0.8c2.9 0.6 5.6 1.4 8.1 2.4 2.5 1.1 4.8 2.4 6.8 3.9s3.5 3.2 4.6 5l-8.1 9.5c-1.1-0.8-2.7-1.6-4.8-2.5s-4.3-1.7-6.8-2.4c-2.4-0.7-4.9-1.2-7.4-1.4-2.5-0.3-4.8-0.2-6.8 0.3-2.4 0.5-4.3 1.7-5.7 3.6-1.4 2-2.1 4.6-2.1 8-0.1 4.7 0.8 8.6 2.7 11.6s4.4 4.8 7.6 5.3c0.7 0.2 1.4 0.3 2.2 0.3h2.5c2 0 4.1-0.2 6.3-0.6s4.3-1 6.3-1.7 3.9-1.6 5.5-2.5c1.6-1 2.9-2.1 3.8-3.3l6.8 9.3c-2.8 3.6-6.6 6.8-11.5 9.5-4.8 2.8-10.3 4.1-16.4 4.1-2.2 0.2-4.2 0-6-0.3z m112-25.7h0.2c-5.2 1.4-9.8 2.3-13.9 3-4.1 0.6-7.9 0.9-11.5 0.9-4.1 0-7.7-0.3-11.1-0.8-3.3-0.6-6.6-1.4-9.9-2.4 0.7 5 2.8 8.3 6.3 9.9s7.6 2.5 12.1 2.5c2.6 0 5.2-0.2 7.9-0.5 2.6-0.3 5.4-0.8 8.2-1.4 0.4 2.3 0.9 4.4 1.4 6.4 0.4 2 0.9 4.1 1.4 6.3-7.3 1.9-13.9 2.9-19.6 2.9-5.1 0-9.7-0.8-14-2.4s-7.9-4.3-10.8-8.3c-1.1-1.2-2.5-3.5-4.1-6.8s-2.4-7.4-2.4-12.5c0-4.2 1-9.3 2.9-15.4 0.9-2.1 2.4-4.1 4.4-6s4.3-3.5 6.9-4.8c2.6-1.4 5.3-2.5 8.1-3.3s5.5-1.4 8.1-1.6c5.5 0.7 10.2 2 14.2 4.1 3.9 2 7.1 4.4 9.5 7s4.2 5.5 5.3 8.4c1.1 3 1.7 5.7 1.7 8.2 0 3.3-0.2 5.4-0.7 6.4l-0.6 0.2z m-44.6-9.1l-0.2-0.2h-0.2v0.3h0.3v-0.1h0.1z m0 0c1.1 0.2 3 0.5 5.7 0.7 2.6 0.2 5.8 0.3 9.4 0.3 2.6 0 5.1-0.1 7.5-0.3 2.4-0.2 4.8-0.5 7-1.1-0.5-2.8-1.2-5-2.3-6.5s-2.3-2.6-3.7-3.3c-1.4-0.7-2.9-1-4.5-1.1s-3.1-0.1-4.6-0.1c-2.4 0-4.4 0.4-6.1 1.3-1.7 0.8-3.1 1.9-4.3 3-1.2 1.2-2.1 2.4-2.8 3.6s-1.1 2.2-1.4 2.9v-0.3c-0.1 0.1-0.2 0.3-0.2 0.5v0.2c0-0.1 0.1-0.2 0.2-0.3l0.1 0.5z" fill="#FFF6ED" p-id="6674"></path><path d="M708.4 163.8c0-7.3-4.9-0.1-11.6-2-26.7-26.3-99-45.2-184.1-45.2-85.4 0-158 19-184.4 45.5-6.2 2.2-10.7-5.2-10.7 1.7v21.5c0 1.7 0.3 3.4 0.8 4.9 8.8 34.5 92.4 61.5 194.3 61.5 97.7 0 178.7-24.9 192.9-57.4 1.8-2.6 2.8-5.7 2.8-9.1v-21.4z" fill="#C3A895" p-id="6675"></path><path d="M512.5 127c88.2 0 160.9 20.3 171.5 46.5 0.9-2.2 1.3-4.4 1.3-6.6 0-29.3-77.4-53.1-172.9-53.1s-172.9 23.8-172.9 53.1c0 2.2 0.5 4.5 1.3 6.6 10.8-26.2 83.6-46.5 171.7-46.5z" fill="#A36050" p-id="6676"></path><path d="M513 98.2c-107.9 0-195.4 30.2-195.4 67.5s87.5 67.5 195.4 67.5 195.4-30.2 195.4-67.5S620.9 98.2 513 98.2z m-1.2 121c-95.7 0-173.2-23.7-173.2-53s77.6-53 173.2-53 173.2 23.7 173.2 53-77.5 53-173.2 53z" fill="#FFF6ED" p-id="6677"></path><path d="M513 146.7c74.2 0 133.5 13 164.7 28.9-12.4-19.9-76.7-40.5-164.7-40.5s-152.3 20.6-164.7 40.5c31.2-15.9 90.5-28.9 164.7-28.9z" fill="#DFC3B4" p-id="6678"></path><path d="M476.2 199.9a36.3 16.1 0 1 0 72.6 0 36.3 16.1 0 1 0-72.6 0z" fill="#FFF6ED" p-id="6679"></path><path d="M543.3 160.7v-0.4c-0.1-14.4-7.7-29.8-29-30.5-17.7-0.5-29.9 10.1-31.6 27.6l-0.2 0.3c-0.1 2.4-0.6 17.9-0.6 24.9 0 6.7 15.5 10.2 30.9 10.2 13.7 0 25.2-2.6 29.3-6.7 1.1-1.1 1.7-2.3 1.7-3.6 0-8.2-0.3-17.2-0.5-21.8z m-31.1-11.1c-10.4 0-20 2.7-24.8 6.9 2-14 12.1-22.6 26.7-22.1 14.1 0.4 23.2 9 24.5 22.9-5.9-4.9-15.4-7.7-26.4-7.7z" fill="#FFF6ED" p-id="6680"></path><path d="M512.6 188.1c-14.3 0-25.9-6.6-25.9-14.7 0-8.2 11.6-14.8 25.9-14.8s25.9 6.6 25.9 14.7-11.6 14.8-25.9 14.8z" fill="#C3A895" p-id="6681"></path><path d="M512.6 161.4c12.4 0 22.9 4.7 25.8 11-0.7-7.8-12-14-25.8-14s-25.1 6.2-25.8 14c2.9-6.2 13.3-10.9 25.8-11z" fill="#F2E1D7" p-id="6682"></path><path d="M512.6 179.1c-5.6 0-10.2-2.6-10.2-5.8s4.6-5.9 10.2-5.9 10.2 2.6 10.2 5.8c0 3.3-4.6 5.9-10.2 5.9z" fill="#FFF6ED" p-id="6683"></path><path d="M510.9 324.2c91.1 0 171.7-16.2 221-51.7-6.8-19-15.9-37-27.1-53.3-49.3 25.9-117.9 43.3-193.8 43.3-74.4 0-141.9-16.8-190.9-41.8-11.2 16.6-20.3 34.8-26.9 54.1 49.5 34.1 128.6 49.4 217.7 49.4z" fill="#FFE361" p-id="6684"></path><path d="M311.1 560.1c-6.6 0-12-5.4-12-12v-40.2c0-6.6 5.4-12 12-12s12 5.4 12 12v40.2c0 6.6-5.4 12-12 12z m0-77.2c-6.6 0-12-5.4-12-12V330.3c0-2.8 0.1-6 0.3-9.8 2-32.4 13.8-69.3 32.4-101.3 3.3-5.7 10.7-7.7 16.4-4.4 5.7 3.3 7.7 10.7 4.4 16.4-16.8 28.9-27.4 62-29.2 90.7-0.2 3.3-0.3 6-0.3 8.4v140.6c0 6.7-5.4 12-12 12z" fill="#FFF1B6" p-id="6685"></path></svg>