<?xml version="1.0" standalone="no"?><!DOCTYPE svg PUBLIC "-//W3C//DTD SVG 1.1//EN" "http://www.w3.org/Graphics/SVG/1.1/DTD/svg11.dtd"><svg t="1675082731756" class="icon" viewBox="0 0 1024 1024" version="1.1" xmlns="http://www.w3.org/2000/svg" p-id="7591" xmlns:xlink="http://www.w3.org/1999/xlink" width="200" height="200"><path d="M887.466667 614.4c0 207.36-168.106667 375.466667-375.466667 375.466667S136.533333 821.76 136.533333 614.4 304.64 238.933333 512 238.933333s375.466667 168.106667 375.466667 375.466667z" fill="#FF7744" p-id="7592"></path><path d="M443.733333 170.666667a136.533333 136.533333 0 0 1 136.533334-136.533334h102.4a34.133333 34.133333 0 0 1 34.133333 34.133334v34.133333a136.533333 136.533333 0 0 1-136.533333 136.533333h-102.4a34.133333 34.133333 0 0 1-34.133334-34.133333V170.666667z" fill="#FFAA44" p-id="7593"></path><path d="M307.2 631.466667a51.2 51.2 0 0 0 51.2-51.2 119.466667 119.466667 0 0 1 119.466667-119.466667 51.2 51.2 0 0 0 0-102.4A221.866667 221.866667 0 0 0 256 580.266667 51.2 51.2 0 0 0 307.2 631.466667z" fill="#FFFFFF" p-id="7594"></path></svg>